<?xml version="1.0" encoding="UTF-8" standalone="no"?>
<svg
   width="2019"
   height="1755.92"
   viewBox="0 0 2019 1755.92"
   version="1.1"
   id="svg1"
   xmlns="http://www.w3.org/2000/svg"
   xmlns:svg="http://www.w3.org/2000/svg">
  <defs
     id="defs1" />
  <g
     id="logo"
     fill="#333333"
     fill-rule="evenodd"
     transform="translate(-7.5,-0.58000183)">
    <circle
       id="dot"
       cx="414.16"
       cy="174.35001"
       r="173.77" />
    <path
       id="lambda"
       d="m 258,1756.5 -249,-1 -1.5,-4.5 225,-411 257,-479 -108,-223 -9,-13 -15.5,-13.5 -31,-10 -264.5,-1.5 -1,-187 2.5,-2.5 393,2 45,14 29,16 22,18 22.5,24.5 21,30 14,27 109,233 144,294 252,505 92,178 -1.5,3.5 H 926 L 923.5,1753 608,1103.5 Z" />
    <path
       id="R"
       d="m 2025,1755.5 h -274 l -178.5,-295.5 -135,-232 -6.5,-6.5 -205.5,2.5 v 461 l -3,-1 -243,-483 1.5,-789.5 h 543 l 55,7 65,19 56,25 74,53 49.5,53.5 29,44 20,41 11,29 14,56 5,47 v 41 l -5,44 -9,39 -10,32 -23,51 -16,27 -32,43 -33.5,34.5 -39,32 -62.5,36.5 278,459 71,119 5,9 z M 1497.5,981 l 17.5,-1.5 29,-8 47,-24 39.5,-37.5 22,-37 13,-47 1,-43 -13,-53 -24,-41 -25.5,-26.5 -28,-19 -23,-11 -41,-11 -286,-1 -0.5,359.5 z" />
  </g>
</svg>
