<svg xmlns="http://www.w3.org/2000/svg" width="2048" height="1788" viewBox="0 0 2048 1788">
  <g id="logo" fill="#333333" fill-rule="evenodd">
    <circle id="dot" cx="414.16" cy="174.35" r="173.77" />
    <path id="lambda" d="M 258.00,1756.50 L 9.00,1755.50 L 7.50,1751.00 L 232.50,1340.00 L 489.50,861.00 L 381.50,638.00 L 372.50,625.00 L 357.00,611.50 L 326.00,601.50 L 61.50,600.00 L 60.50,413.00 L 63.00,410.50 L 456.00,412.50 L 501.00,426.50 L 530.00,442.50 L 552.00,460.50 L 574.50,485.00 L 595.50,515.00 L 609.50,542.00 L 718.50,775.00 L 862.50,1069.00 L 1114.50,1574.00 L 1206.50,1752.00 L 1205.00,1755.50 L 926.00,1755.50 L 923.50,1753.00 L 608.00,1103.50 L 258.00,1756.50 Z" />
    <path id="R" d="M 2025.00,1755.50 L 1751.00,1755.50 L 1572.50,1460.00 L 1437.50,1228.00 L 1431.00,1221.50 L 1225.50,1224.00 L 1225.50,1685.00 L 1222.50,1684.00 L 979.50,1201.00 L 981.00,411.50 L 1524.00,411.50 L 1579.00,418.50 L 1644.00,437.50 L 1700.00,462.50 L 1774.00,515.50 L 1823.50,569.00 L 1852.50,613.00 L 1872.50,654.00 L 1883.50,683.00 L 1897.50,739.00 L 1902.50,786.00 L 1902.50,827.00 L 1897.50,871.00 L 1888.50,910.00 L 1878.50,942.00 L 1855.50,993.00 L 1839.50,1020.00 L 1807.50,1063.00 L 1774.00,1097.50 L 1735.00,1129.50 L 1672.50,1166.00 L 1950.50,1625.00 L 2021.50,1744.00 L 2026.50,1753.00 L 2025.00,1755.50 Z M 1497.50,981.00 L 1515.00,979.50 L 1544.00,971.50 L 1591.00,947.50 L 1630.50,910.00 L 1652.50,873.00 L 1665.50,826.00 L 1666.50,783.00 L 1653.50,730.00 L 1629.50,689.00 L 1604.00,662.50 L 1576.00,643.50 L 1553.00,632.50 L 1512.00,621.50 L 1226.00,620.50 L 1225.50,980.00 L 1497.50,981.00 Z" />
  </g>
</svg>
